<svg width="100%" height="100%" viewBox="0 0 1920 1080" xmlns="http://www.w3.org/2000/svg">
  <defs>
    <linearGradient id="backgroundGradient" x1="0%" y1="0%" x2="100%" y2="100%">
      <stop offset="0%" stop-color="#2c0645" />
      <stop offset="100%" stop-color="#1a0329" />
    </linearGradient>
    
    <radialGradient id="radialGlow" cx="50%" cy="50%" r="50%" fx="50%" fy="50%">
      <stop offset="0%" stop-color="rgba(147, 51, 234, 0.4)" />
      <stop offset="50%" stop-color="rgba(147, 51, 234, 0.1)" />
      <stop offset="100%" stop-color="rgba(147, 51, 234, 0)" />
    </radialGradient>
    
    <filter id="glow" x="-50%" y="-50%" width="200%" height="200%">
      <feGaussianBlur stdDeviation="20" result="blur" />
      <feComposite in="SourceGraphic" in2="blur" operator="over" />
    </filter>
  </defs>
  
  <!-- Background -->
  <rect width="100%" height="100%" fill="url(#backgroundGradient)" />
  
  <!-- Radial glow -->
  <circle cx="50%" cy="50%" r="500" fill="url(#radialGlow)" opacity="0.8" />
  
  <!-- Floating orbs with blur -->
  <g filter="url(#glow)">
    <circle cx="30%" cy="20%" r="150" fill="#9333ea" opacity="0.3">
      <animate attributeName="cy" values="20%;22%;20%" dur="15s" repeatCount="indefinite" />
      <animate attributeName="cx" values="30%;28%;30%" dur="17s" repeatCount="indefinite" />
    </circle>
    
    <circle cx="70%" cy="70%" r="100" fill="#8b5cf6" opacity="0.3">
      <animate attributeName="cy" values="70%;72%;70%" dur="18s" repeatCount="indefinite" />
      <animate attributeName="cx" values="70%;72%;70%" dur="20s" repeatCount="indefinite" />
    </circle>
    
    <circle cx="15%" cy="80%" r="120" fill="#db2777" opacity="0.2">
      <animate attributeName="cy" values="80%;78%;80%" dur="19s" repeatCount="indefinite" />
      <animate attributeName="cx" values="15%;13%;15%" dur="21s" repeatCount="indefinite" />
    </circle>
  </g>
  
  <!-- Subtle particle dots -->
  <g opacity="0.5">
    <circle cx="10%" cy="10%" r="1" fill="#ffffff" />
    <circle cx="20%" cy="30%" r="1" fill="#ffffff" />
    <circle cx="30%" cy="50%" r="1" fill="#ffffff" />
    <circle cx="40%" cy="70%" r="1" fill="#ffffff" />
    <circle cx="50%" cy="90%" r="1" fill="#ffffff" />
    <circle cx="60%" cy="80%" r="1" fill="#ffffff" />
    <circle cx="70%" cy="60%" r="1" fill="#ffffff" />
    <circle cx="80%" cy="40%" r="1" fill="#ffffff" />
    <circle cx="90%" cy="20%" r="1" fill="#ffffff" />
    <circle cx="95%" cy="5%" r="1" fill="#ffffff" />
    <circle cx="85%" cy="15%" r="1" fill="#ffffff" />
    <circle cx="75%" cy="25%" r="1" fill="#ffffff" />
    <circle cx="65%" cy="35%" r="1" fill="#ffffff" />
    <circle cx="55%" cy="45%" r="1" fill="#ffffff" />
    <circle cx="45%" cy="55%" r="1" fill="#ffffff" />
    <circle cx="35%" cy="65%" r="1" fill="#ffffff" />
    <circle cx="25%" cy="75%" r="1" fill="#ffffff" />
    <circle cx="15%" cy="85%" r="1" fill="#ffffff" />
    <circle cx="5%" cy="95%" r="1" fill="#ffffff" />
  </g>
</svg> 